# xmcd CD database file
#
# Track frame offsets:
#	150
#	14628
#	43739
#	64202
#	84353
#	105614
#	141932
#	155222
#	177796
#	205058
#
# Disc length: 3025 seconds
#
# Revision: 1
# Processed by: cddbd v1.5PL3 Copyright (c) Steve Scherf et al.
# Submitted via: CDex 1.51
#
DISCID=8a0bcf0a
DTITLE=Aurio Corrá - Dos confins do céu
DYEAR=1900
DGENRE=New Age
TTITLE0=Num campo de Paz
TTITLE1=Nos jardins do céu
TTITLE2=Pavilhões de Vidro
TTITLE3=Onde ficam as baleias
TTITLE4=Os guardiões da história
TTITLE5=Entre seres
TTITLE6=Encontro com iluminados
TTITLE7=Dê lembranças ao Campeão
TTITLE8=Flutuando
TTITLE9=Despertando na Luz
EXTD=
EXTT0=
EXTT1=
EXTT2=
EXTT3=
EXTT4=
EXTT5=
EXTT6=
EXTT7=
EXTT8=
EXTT9=
PLAYORDER=
